{"title":"Patriots Day (2016) BRRIP 1080P NO CINAVIA","magnet":"magnet:?xt=urn:btih:eff7deec66938dbee623dc30129c7c62da592e10&dn=Patriots+Day+%282016%29+BRRIP+1080P+NO+CINAVIA&tr=udp%3A%2F%2Ftracker.leechers-paradise.org%3A6969&tr=udp%3A%2F%2Fzer0day.ch%3A1337&tr=udp%3A%2F%2Fopen.demonii.com%3A1337&tr=udp%3A%2F%2Ftracker.coppersurfer.tk%3A6969&tr=udp%3A%2F%2Fexodus.desync.com%3A6969","uploader":"jmanwf","categoryP":"video","categoryS":"hd___movies","size":"6068443680","seeders":"0","leechers":"20","description":"The story of the 2013 Boston Marathon bombing and the aftermath, which includes the city-wide manhunt to find the terrorists responsible.\r\n\r\n\r\nFormat                                   : Matroska\r\nFormat version                           : Version 4 / Version 2\r\nFile size                                : 5.65 GiB\r\nDuration                                 : 2 h 13 min\r\nOverall bit rate                         : 6 078 kb/s\r\nEncoded date                             : UTC 2017-07-04 04:42:54\r\nWriting application                      : mkvmerge v13.0.0 (&apos;The Juggler&apos;) 64\r\n\r\nVideo\r\nID                                       : 1\r\nFormat                                   : MPEG-4 Visual\r\nFormat profile                           : Advanced <a class=\"__cf_email__\" href=\"/cdn-cgi/l/email-protection\" data-cfemail=\"ce9da7a3bea2ab8e82ff\">[email&#xA0;protected]</a><script data-cfhash=\"f9e31\" type=\"text/javascript\">/* <![CDATA[ */!function(t,e,r,n,c,a,p){try{t=document.currentScript||function(){for(t=document.getElementsByTagName('script'),e=t.length;e--;)if(t[e].getAttribute('data-cfhash'))return t[e]}();if(t&&(c=t.previousSibling)){p=t.parentNode;if(a=c.getAttribute('data-cfemail')){for(e='',r='0x'+a.substr(0,2)|0,n=2;a.length-n;n+=2)e+='%'+('0'+('0x'+a.substr(n,2)^r).toString(16)).slice(-2);p.replaceChild(document.createTextNode(decodeURIComponent(e)),c)}p.removeChild(t)}}catch(u){}}()/* ]]> */</script>\r\nFormat settings, BVOP                    : No\r\nFormat settings, QPel                    : No\r\nFormat settings, GMC                     : No warppoints\r\nFormat settings, Matrix                  : Default (H.263)\r\nCodec ID                                 : V_MPEG4/ISO/ASP\r\nCodec ID/Info                            : Advanced Simple Profile\r\nDuration                                 : 2 h 13 min\r\nBit rate                                 : 5 492 kb/s\r\nWidth                                    : 1 920 pixels\r\nHeight                                   : 1 080 pixels\r\nDisplay aspect ratio                     : 16:9\r\nFrame rate mode                          : Constant\r\nFrame rate                               : 23.976 (24000/1001) FPS\r\nColor space                              : YUV\r\nChroma subsampling                       : 4:2:0\r\nBit depth                                : 8 bits\r\nScan type                                : Progressive\r\nCompression mode                         : Lossy\r\nBits/(Pixel*Frame)                       : 0.110\r\nStream size                              : 5.11 GiB (90%)\r\nWriting library                          : Lavc56.35.101\r\nLanguage                                 : English\r\nDefault                                  : Yes\r\nForced                                   : No\r\n\r\nAudio\r\nID                                       : 2\r\nFormat                                   : AAC\r\nFormat/Info                              : Advanced Audio Codec\r\nFormat profile                           : LC\r\nCodec ID                                 : A_AAC\r\nDuration                                 : 2 h 13 min\r\nBit rate                                 : 576 kb/s\r\nChannel(s)                               : 6 channels\r\nChannel positions                        : Front: L C R, Side: L R, LFE\r\nSampling rate                            : 48.0 kHz\r\nFrame rate                               : 46.875 FPS (1024 spf)\r\nCompression mode                         : Lossy\r\nStream size                              : 547 MiB (9%)\r\nLanguage                                 : English\r\nDefault                                  : Yes\r\nForced                                   : No\r\n\r\nText\r\nID                                       : 3\r\nFormat                                   : VobSub\r\nMuxing mode                              : zlib\r\nCodec ID                                 : S_VOBSUB\r\nCodec ID/Info                            : Picture based subtitle format used on DVDs\r\nDuration                                 : 2 h 12 min\r\nBit rate                                 : 14.8 kb/s\r\nCount of elements                        : 2202\r\nStream size                              : 14.1 MiB (0%)\r\nLanguage                                 : English\r\nDefault                                  : Yes\r\nForced                                   : No\r\n\r\n <a href=\"\nhttp://www.imdb.com/title/tt4572514/\" rel=\"nofollow\" target=\"_NEW\">\nhttp://www.imdb.com/title/tt4572514/</a>","last_updated":"2017-07-04T12:05:59.390Z","parsed":{"xt":"urn:btih:eff7deec66938dbee623dc30129c7c62da592e10","dn":"Patriots Day (2016) BRRIP 1080P NO CINAVIA","tr":["udp://exodus.desync.com:6969","udp://open.demonii.com:1337","udp://tracker.coppersurfer.tk:6969","udp://tracker.leechers-paradise.org:6969","udp://zer0day.ch:1337"],"infoHash":"eff7deec66938dbee623dc30129c7c62da592e10","infoHashBuffer":{"type":"Buffer","data":[239,247,222,236,102,147,141,190,230,35,220,48,18,156,124,98,218,89,46,16]},"name":"Patriots Day (2016) BRRIP 1080P NO CINAVIA","announce":["udp://exodus.desync.com:6969","udp://open.demonii.com:1337","udp://tracker.coppersurfer.tk:6969","udp://tracker.leechers-paradise.org:6969","udp://zer0day.ch:1337"],"urlList":[]}}